<mxfile host="Electron" agent="Mozilla/5.0 (Windows NT 10.0; Win64; x64) AppleWebKit/537.36 (KHTML, like Gecko) draw.io/24.7.17 Chrome/128.0.6613.36 Electron/32.0.1 Safari/537.36" version="24.7.17">
  <diagram name="Page-1" id="FJNe5EvcXi99J54LGrXY">
    <mxGraphModel dx="1036" dy="658" grid="1" gridSize="10" guides="1" tooltips="1" connect="1" arrows="1" fold="1" page="1" pageScale="1" pageWidth="1169" pageHeight="827" math="0" shadow="0">
      <root>
        <mxCell id="0" />
        <mxCell id="1" parent="0" />
        <mxCell id="mR_fGzdIViz8Gp37NLQ_-65" value="" style="html=1;shadow=0;dashed=0;shape=mxgraph.bootstrap.rrect;rSize=5;strokeColor=#DFDFDF;html=1;whiteSpace=wrap;fillColor=#ffffff;fontColor=#000000;verticalAlign=top;align=left;spacing=20;fontSize=14;spacingLeft=170;" vertex="1" parent="1">
          <mxGeometry x="550" y="170" width="620" height="400" as="geometry" />
        </mxCell>
        <mxCell id="mR_fGzdIViz8Gp37NLQ_-66" value="" style="html=1;shadow=0;dashed=0;shape=mxgraph.bootstrap.leftButton;rSize=5;perimeter=none;whiteSpace=wrap;fillColor=#868E96;strokeColor=#DFDFDF;fontColor=#DEE2E6;resizeWidth=1;fontSize=18;" vertex="1" parent="mR_fGzdIViz8Gp37NLQ_-65">
          <mxGeometry width="230" height="400" relative="1" as="geometry" />
        </mxCell>
        <mxCell id="mR_fGzdIViz8Gp37NLQ_-42" value="" style="html=1;shadow=0;dashed=0;shape=mxgraph.bootstrap.rrect;rSize=5;fillColor=#ffffff;strokeColor=#999999;" vertex="1" parent="1">
          <mxGeometry x="70" y="170" width="350" height="425" as="geometry" />
        </mxCell>
        <mxCell id="mR_fGzdIViz8Gp37NLQ_-43" value="Email address" style="fillColor=none;strokeColor=none;align=left;spacing=20;fontSize=14;" vertex="1" parent="mR_fGzdIViz8Gp37NLQ_-42">
          <mxGeometry width="220" height="40" relative="1" as="geometry">
            <mxPoint y="70" as="offset" />
          </mxGeometry>
        </mxCell>
        <mxCell id="mR_fGzdIViz8Gp37NLQ_-44" value="email@example.com" style="html=1;shadow=0;dashed=0;shape=mxgraph.bootstrap.rrect;rSize=5;fillColor=none;strokeColor=#999999;align=left;spacing=15;fontSize=14;fontColor=#6C767D;" vertex="1" parent="mR_fGzdIViz8Gp37NLQ_-42">
          <mxGeometry width="180" height="30" relative="1" as="geometry">
            <mxPoint x="12" y="110" as="offset" />
          </mxGeometry>
        </mxCell>
        <mxCell id="mR_fGzdIViz8Gp37NLQ_-45" value="Password" style="fillColor=none;strokeColor=none;align=left;spacing=20;fontSize=14;" vertex="1" parent="mR_fGzdIViz8Gp37NLQ_-42">
          <mxGeometry width="220" height="40" relative="1" as="geometry">
            <mxPoint y="150" as="offset" />
          </mxGeometry>
        </mxCell>
        <mxCell id="mR_fGzdIViz8Gp37NLQ_-46" value="Password" style="html=1;shadow=0;dashed=0;shape=mxgraph.bootstrap.rrect;rSize=5;fillColor=none;strokeColor=#999999;align=left;spacing=15;fontSize=14;fontColor=#6C767D;" vertex="1" parent="mR_fGzdIViz8Gp37NLQ_-42">
          <mxGeometry width="180" height="30" relative="1" as="geometry">
            <mxPoint x="20" y="190" as="offset" />
          </mxGeometry>
        </mxCell>
        <mxCell id="mR_fGzdIViz8Gp37NLQ_-47" value="Remember me" style="html=1;shadow=0;dashed=0;shape=mxgraph.bootstrap.rrect;rSize=2;fillColor=#EDEDED;strokeColor=#999999;align=left;fontSize=14;fontColor=#000000;labelPosition=right;verticalLabelPosition=middle;verticalAlign=middle;spacingLeft=5;spacingTop=-2;gradientColor=#DEDEDE;" vertex="1" parent="mR_fGzdIViz8Gp37NLQ_-42">
          <mxGeometry width="10" height="10" relative="1" as="geometry">
            <mxPoint x="20" y="240" as="offset" />
          </mxGeometry>
        </mxCell>
        <mxCell id="mR_fGzdIViz8Gp37NLQ_-48" value="Sign in" style="html=1;shadow=0;dashed=0;shape=mxgraph.bootstrap.rrect;rSize=5;fillColor=#0085FC;strokeColor=none;align=center;fontSize=14;fontColor=#FFFFFF;" vertex="1" parent="mR_fGzdIViz8Gp37NLQ_-42">
          <mxGeometry width="70" height="40" relative="1" as="geometry">
            <mxPoint x="20" y="270" as="offset" />
          </mxGeometry>
        </mxCell>
        <mxCell id="mR_fGzdIViz8Gp37NLQ_-49" value="" style="shape=line;strokeColor=#999999;perimeter=none;resizeWidth=1;" vertex="1" parent="mR_fGzdIViz8Gp37NLQ_-42">
          <mxGeometry width="270.7547169811321" height="10" relative="1" as="geometry">
            <mxPoint y="337" as="offset" />
          </mxGeometry>
        </mxCell>
        <mxCell id="mR_fGzdIViz8Gp37NLQ_-50" value="New around here? Sign up&lt;br&gt;&lt;br&gt;Forgot password?" style="html=1;fillColor=none;strokeColor=none;align=left;spacing=20;fontSize=14;" vertex="1" parent="mR_fGzdIViz8Gp37NLQ_-42">
          <mxGeometry width="220" height="60" relative="1" as="geometry">
            <mxPoint y="352" as="offset" />
          </mxGeometry>
        </mxCell>
        <mxCell id="mR_fGzdIViz8Gp37NLQ_-51" value="Branch" style="fillColor=none;strokeColor=none;align=left;spacing=20;fontSize=14;" vertex="1" parent="mR_fGzdIViz8Gp37NLQ_-42">
          <mxGeometry width="145.2830188679245" height="43.589743589743584" as="geometry" />
        </mxCell>
        <object label="" id="mR_fGzdIViz8Gp37NLQ_-52">
          <mxCell style="html=1;shadow=0;dashed=0;shape=mxgraph.bootstrap.rrect;rSize=5;strokeColor=#505050;strokeWidth=1;fillColor=#ffffff;fontColor=#777777;whiteSpace=wrap;align=left;verticalAlign=middle;fontStyle=0;fontSize=18;spacing=20;" vertex="1" parent="mR_fGzdIViz8Gp37NLQ_-42">
            <mxGeometry x="9.25" y="43.59" width="220.75" height="26.41" as="geometry" />
          </mxCell>
        </object>
        <mxCell id="mR_fGzdIViz8Gp37NLQ_-53" value="" style="shape=triangle;direction=south;fillColor=#495057;strokeColor=none;perimeter=none;" vertex="1" parent="mR_fGzdIViz8Gp37NLQ_-52">
          <mxGeometry x="1" y="0.5" width="10" height="5" relative="1" as="geometry">
            <mxPoint x="-17" y="-2.5" as="offset" />
          </mxGeometry>
        </mxCell>
        <mxCell id="mR_fGzdIViz8Gp37NLQ_-59" value="" style="swimlane;container=1;shape=mxgraph.bootstrap.rrect;rSize=5;strokeColor=#999999;fillColor=#ffffff;fontStyle=0;childLayout=stackLayout;horizontal=1;startSize=0;horizontalStack=0;resizeParent=1;resizeParentMax=0;resizeLast=0;collapsible=0;marginBottom=0;whiteSpace=wrap;html=1;marginTop=10;marginBottom=10;" vertex="1" parent="1">
          <mxGeometry x="550" y="320" width="180" height="150" as="geometry" />
        </mxCell>
        <mxCell id="mR_fGzdIViz8Gp37NLQ_-60" value="Action" style="text;align=left;verticalAlign=middle;spacingLeft=20;spacingRight=10;overflow=hidden;points=[[0,0.5],[1,0.5]];portConstraint=eastwest;rotatable=0;whiteSpace=wrap;html=1;fontColor=inherit;fontSize=14;fontStyle=0;" vertex="1" parent="mR_fGzdIViz8Gp37NLQ_-59">
          <mxGeometry y="10" width="180" height="30" as="geometry" />
        </mxCell>
        <mxCell id="mR_fGzdIViz8Gp37NLQ_-61" value="Another Action" style="text;align=left;verticalAlign=middle;spacingLeft=20;spacingRight=10;overflow=hidden;points=[[0,0.5],[1,0.5]];portConstraint=eastwest;rotatable=0;whiteSpace=wrap;html=1;fontColor=inherit;fontSize=14;fontStyle=0;" vertex="1" parent="mR_fGzdIViz8Gp37NLQ_-59">
          <mxGeometry y="40" width="180" height="30" as="geometry" />
        </mxCell>
        <mxCell id="mR_fGzdIViz8Gp37NLQ_-62" value="Something else here" style="text;align=left;verticalAlign=middle;spacingLeft=20;spacingRight=10;overflow=hidden;points=[[0,0.5],[1,0.5]];portConstraint=eastwest;rotatable=0;whiteSpace=wrap;html=1;fontColor=inherit;fontSize=14;fontStyle=0;" vertex="1" parent="mR_fGzdIViz8Gp37NLQ_-59">
          <mxGeometry y="70" width="180" height="30" as="geometry" />
        </mxCell>
        <mxCell id="mR_fGzdIViz8Gp37NLQ_-63" value="" style="text;shape=line;strokeColor=inherit;align=center;verticalAlign=middle;spacingLeft=20;spacingRight=10;overflow=hidden;points=[[0,0.5],[1,0.5]];portConstraint=eastwest;rotatable=0;whiteSpace=wrap;html=1;fontColor=inherit;" vertex="1" parent="mR_fGzdIViz8Gp37NLQ_-59">
          <mxGeometry y="100" width="180" height="10" as="geometry" />
        </mxCell>
        <mxCell id="mR_fGzdIViz8Gp37NLQ_-64" value="Logout" style="text;align=left;verticalAlign=middle;spacingLeft=20;spacingRight=10;overflow=hidden;points=[[0,0.5],[1,0.5]];portConstraint=eastwest;rotatable=0;whiteSpace=wrap;html=1;fontColor=inherit;fontSize=14;fontStyle=0;" vertex="1" parent="mR_fGzdIViz8Gp37NLQ_-59">
          <mxGeometry y="110" width="180" height="30" as="geometry" />
        </mxCell>
        <mxCell id="mR_fGzdIViz8Gp37NLQ_-67" value="&lt;table border=&quot;1&quot; width=&quot;100%&quot; height=&quot;100%&quot; cellpadding=&quot;4&quot; style=&quot;width:100%;height:100%;border-collapse:collapse;&quot;&gt;&lt;tbody&gt;&lt;tr&gt;&lt;th align=&quot;center&quot;&gt;&lt;b&gt;Menu&lt;/b&gt;&lt;/th&gt;&lt;/tr&gt;&lt;tr&gt;&lt;td align=&quot;center&quot;&gt;Section 1.1&lt;br&gt;Section 1.2&lt;br&gt;Section 1.3&lt;/td&gt;&lt;/tr&gt;&lt;tr&gt;&lt;td align=&quot;center&quot;&gt;Section 2.1&lt;br&gt;Section 2.2&lt;br&gt;Section 2.3&lt;/td&gt;&lt;/tr&gt;&lt;/tbody&gt;&lt;/table&gt;" style="text;html=1;whiteSpace=wrap;strokeColor=none;fillColor=none;overflow=fill;" vertex="1" parent="1">
          <mxGeometry x="660" y="610" width="180" height="180" as="geometry" />
        </mxCell>
      </root>
    </mxGraphModel>
  </diagram>
</mxfile>
